<svg xmlns="http://www.w3.org/2000/svg" width="400" height="120" viewBox="0 0 400 120">
  <defs>
    <linearGradient id="bgGrad" x1="0%" y1="0%" x2="100%" y2="100%">
      <stop offset="0%" style="stop-color:#0d1117;stop-opacity:1"/>
      <stop offset="100%" style="stop-color:#111827;stop-opacity:1"/>
    </linearGradient>
    <linearGradient id="waveGrad" x1="0%" y1="0%" x2="100%" y2="0%">
      <stop offset="0%" style="stop-color:#0077aa;stop-opacity:0.4"/>
      <stop offset="50%" style="stop-color:#00d4ff;stop-opacity:0.9"/>
      <stop offset="100%" style="stop-color:#0077aa;stop-opacity:0.4"/>
    </linearGradient>
    <filter id="glow">
      <feGaussianBlur stdDeviation="2" result="coloredBlur"/>
      <feMerge><feMergeNode in="coloredBlur"/><feMergeNode in="SourceGraphic"/></feMerge>
    </filter>
  </defs>

  <rect width="400" height="120" rx="10" fill="url(#bgGrad)"/>

  <line x1="0" y1="30" x2="400" y2="30" stroke="#1c2333" stroke-width="1"/>
  <line x1="0" y1="60" x2="400" y2="60" stroke="#1c2333" stroke-width="0.5"/>
  <line x1="0" y1="90" x2="400" y2="90" stroke="#1c2333" stroke-width="1"/>

  <path d="M 20.0,60.0 L 24.5,61.6 L 29.0,63.1 L 33.5,64.5 L 38.0,65.9 L 42.5,67.1 L 47.0,68.1 L 51.5,68.9 L 56.0,69.5 L 60.5,69.9 L 65.0,70.0 L 69.5,69.9 L 74.0,69.5 L 78.5,68.9 L 83.0,68.1 L 87.5,67.1 L 92.0,65.9 L 96.5,64.5 L 101.0,63.1 L 105.5,61.6 L 110.0,60.0 L 114.5,58.4 L 119.0,56.9 L 123.5,55.5 L 128.0,54.1 L 132.5,52.9 L 137.0,51.9 L 141.5,51.1 L 146.0,50.5 L 150.5,50.1 L 155.0,50.0 L 159.5,50.1 L 164.0,50.5 L 168.5,51.1 L 173.0,51.9 L 177.5,52.9 L 182.0,54.1 L 186.5,55.5 L 191.0,56.9 L 195.5,58.4" fill="none" stroke="#0077aa" stroke-width="1.5" opacity="0.4"/>
  <path d="M 20.0,60.0 L 25.0,62.8 L 30.0,65.6 L 35.0,68.2 L 40.0,70.6 L 45.0,72.7 L 50.0,74.6 L 55.0,76.0 L 60.0,77.1 L 65.0,77.8 L 70.0,78.0 L 75.0,77.8 L 80.0,77.1 L 85.0,76.0 L 90.0,74.6 L 95.0,72.7 L 100.0,70.6 L 105.0,68.2 L 110.0,65.6 L 115.0,62.8 L 120.0,60.0 L 125.0,57.2 L 130.0,54.4 L 135.0,51.8 L 140.0,49.4 L 145.0,47.3 L 150.0,45.4 L 155.0,44.0 L 160.0,42.9 L 165.0,42.2 L 170.0,42.0 L 175.0,42.2 L 180.0,42.9 L 185.0,44.0 L 190.0,45.4 L 195.0,47.3 L 200.0,49.4 L 205.0,51.8 L 210.0,54.4 L 215.0,57.2" fill="none" stroke="url(#waveGrad)" stroke-width="2.5" filter="url(#glow)"/>

  <line x1="30" y1="55" x2="80" y2="42" stroke="#0077aa" stroke-width="1.5" opacity="0.6"/>
    <line x1="80" y1="42" x2="130" y2="68" stroke="#0077aa" stroke-width="1.5" opacity="0.6"/>
    <line x1="130" y1="68" x2="180" y2="45" stroke="#0077aa" stroke-width="1.5" opacity="0.6"/>
    <line x1="180" y1="45" x2="230" y2="62" stroke="#0077aa" stroke-width="1.5" opacity="0.6"/>
  <circle cx="30" cy="55" r="4" fill="#00d4ff" opacity="0.9"/>
    <circle cx="80" cy="42" r="4" fill="#00d4ff" opacity="0.9"/>
    <circle cx="130" cy="68" r="4" fill="#00d4ff" opacity="0.9"/>
    <circle cx="180" cy="45" r="4" fill="#00d4ff" opacity="0.9"/>
    <circle cx="230" cy="62" r="4" fill="#00d4ff" opacity="0.9"/>
  <polyline points="115,68 125,43 130,88 135,50 145,68" fill="none" stroke="#ff6b35" stroke-width="2" stroke-linejoin="round"/>

  <rect x="248" y="25" width="4" height="50" rx="2" fill="#1c2333"/>

  <text x="260" y="48" font-family="'Courier New', monospace" font-size="20" font-weight="700" fill="#e6edf3" letter-spacing="0.5">IoT Anomaly</text>
  <text x="260" y="72" font-family="'Courier New', monospace" font-size="13" font-weight="400" fill="#00d4ff" letter-spacing="1.5">INTELLIGENCE</text>
  <text x="260" y="90" font-family="'Courier New', monospace" font-size="9" fill="#0077aa" opacity="0.7" letter-spacing="0.8">SENSOR ANALYSIS PLATFORM</text>
</svg>